<?xml version="1.0" encoding="UTF-8" standalone="no"?>
<svg
   xmlns:dc="http://purl.org/dc/elements/1.1/"
   xmlns:cc="http://creativecommons.org/ns#"
   xmlns:rdf="http://www.w3.org/1999/02/22-rdf-syntax-ns#"
   xmlns:svg="http://www.w3.org/2000/svg"
   xmlns="http://www.w3.org/2000/svg"
   version="1.1"
   id="svg2"
   viewBox="0 0 1108.2856 485.42858"
   height="136.99873mm"
   width="312.78284mm">
  <defs
     id="defs4">
    <marker
       orient="auto"
       refY="0"
       refX="0"
       id="marker6545"
       style="overflow:visible">
      <path
         id="path6547"
         style="fill:#0000ff;fill-opacity:1;fill-rule:evenodd;stroke:#0000ff;stroke-width:0.625;stroke-linejoin:round;stroke-opacity:1"
         d="M 8.7185878,4.0337352 -2.2072895,0.01601326 8.7185884,-4.0017078 c -1.7454984,2.3720609 -1.7354408,5.6174519 -6e-7,8.035443 z"
         transform="matrix(-1.1,0,0,-1.1,-1.1,0)" />
    </marker>
    <marker
       style="overflow:visible"
       id="marker6425"
       refX="0"
       refY="0"
       orient="auto">
      <path
         transform="matrix(-1.1,0,0,-1.1,-1.1,0)"
         d="M 8.7185878,4.0337352 -2.2072895,0.01601326 8.7185884,-4.0017078 c -1.7454984,2.3720609 -1.7354408,5.6174519 -6e-7,8.035443 z"
         style="fill:#0000ff;fill-opacity:1;fill-rule:evenodd;stroke:#0000ff;stroke-width:0.625;stroke-linejoin:round;stroke-opacity:1"
         id="path6427" />
    </marker>
    <marker
       orient="auto"
       refY="0"
       refX="0"
       id="marker6317"
       style="overflow:visible">
      <path
         id="path6319"
         style="fill:#000000;fill-opacity:1;fill-rule:evenodd;stroke:#000000;stroke-width:0.625;stroke-linejoin:round;stroke-opacity:1"
         d="M 8.7185878,4.0337352 -2.2072895,0.01601326 8.7185884,-4.0017078 c -1.7454984,2.3720609 -1.7354408,5.6174519 -6e-7,8.035443 z"
         transform="matrix(-1.1,0,0,-1.1,-1.1,0)" />
    </marker>
    <marker
       style="overflow:visible"
       id="marker5657"
       refX="0"
       refY="0"
       orient="auto">
      <path
         transform="matrix(-1.1,0,0,-1.1,-1.1,0)"
         d="M 8.7185878,4.0337352 -2.2072895,0.01601326 8.7185884,-4.0017078 c -1.7454984,2.3720609 -1.7354408,5.6174519 -6e-7,8.035443 z"
         style="fill:#0000ff;fill-opacity:1;fill-rule:evenodd;stroke:#0000ff;stroke-width:0.625;stroke-linejoin:round;stroke-opacity:1"
         id="path5659" />
    </marker>
    <marker
       orient="auto"
       refY="0"
       refX="0"
       id="marker5525"
       style="overflow:visible">
      <path
         id="path5527"
         style="fill:#0000ff;fill-opacity:1;fill-rule:evenodd;stroke:#0000ff;stroke-width:0.625;stroke-linejoin:round;stroke-opacity:1"
         d="M 8.7185878,4.0337352 -2.2072895,0.01601326 8.7185884,-4.0017078 c -1.7454984,2.3720609 -1.7354408,5.6174519 -6e-7,8.035443 z"
         transform="matrix(-1.1,0,0,-1.1,-1.1,0)" />
    </marker>
    <marker
       style="overflow:visible"
       id="marker5429"
       refX="0"
       refY="0"
       orient="auto">
      <path
         transform="matrix(-1.1,0,0,-1.1,-1.1,0)"
         d="M 8.7185878,4.0337352 -2.2072895,0.01601326 8.7185884,-4.0017078 c -1.7454984,2.3720609 -1.7354408,5.6174519 -6e-7,8.035443 z"
         style="fill:#0000f9;fill-opacity:1;fill-rule:evenodd;stroke:#0000f9;stroke-width:0.625;stroke-linejoin:round;stroke-opacity:1"
         id="path5431" />
    </marker>
    <marker
       orient="auto"
       refY="0"
       refX="0"
       id="marker5303"
       style="overflow:visible">
      <path
         id="path5305"
         style="fill:#0000fb;fill-opacity:1;fill-rule:evenodd;stroke:#0000fb;stroke-width:0.625;stroke-linejoin:round;stroke-opacity:1"
         d="M 8.7185878,4.0337352 -2.2072895,0.01601326 8.7185884,-4.0017078 c -1.7454984,2.3720609 -1.7354408,5.6174519 -6e-7,8.035443 z"
         transform="matrix(-1.1,0,0,-1.1,-1.1,0)" />
    </marker>
    <marker
       orient="auto"
       refY="0"
       refX="0"
       id="marker4945"
       style="overflow:visible">
      <path
         id="path4947"
         style="fill:#0000f9;fill-opacity:1;fill-rule:evenodd;stroke:#0000f9;stroke-width:0.625;stroke-linejoin:round;stroke-opacity:1"
         d="M 8.7185878,4.0337352 -2.2072895,0.01601326 8.7185884,-4.0017078 c -1.7454984,2.3720609 -1.7354408,5.6174519 -6e-7,8.035443 z"
         transform="matrix(-1.1,0,0,-1.1,-1.1,0)" />
    </marker>
    <marker
       style="overflow:visible"
       id="marker4815"
       refX="0"
       refY="0"
       orient="auto">
      <path
         transform="matrix(-1.1,0,0,-1.1,-1.1,0)"
         d="M 8.7185878,4.0337352 -2.2072895,0.01601326 8.7185884,-4.0017078 c -1.7454984,2.3720609 -1.7354408,5.6174519 -6e-7,8.035443 z"
         style="fill:#000000;fill-opacity:1;fill-rule:evenodd;stroke:#000000;stroke-width:0.625;stroke-linejoin:round;stroke-opacity:1"
         id="path4817" />
    </marker>
    <marker
       style="overflow:visible"
       id="Arrow1Mend"
       refX="0"
       refY="0"
       orient="auto">
      <path
         transform="matrix(-0.4,0,0,-0.4,-4,0)"
         style="fill:#000000;fill-opacity:1;fill-rule:evenodd;stroke:#000000;stroke-width:1pt;stroke-opacity:1"
         d="M 0,0 5,-5 -12.5,0 5,5 0,0 Z"
         id="path4248" />
    </marker>
    <marker
       style="overflow:visible"
       id="DotL"
       refX="0"
       refY="0"
       orient="auto">
      <path
         transform="matrix(0.8,0,0,0.8,5.92,0.8)"
         style="fill:#000000;fill-opacity:1;fill-rule:evenodd;stroke:#000000;stroke-width:1pt;stroke-opacity:1"
         d="m -2.5,-1 c 0,2.76 -2.24,5 -5,5 -2.76,0 -5,-2.24 -5,-5 0,-2.76 2.24,-5 5,-5 2.76,0 5,2.24 5,5 z"
         id="path4300" />
    </marker>
    <marker
       style="overflow:visible"
       id="Arrow1Lend"
       refX="0"
       refY="0"
       orient="auto">
      <path
         transform="matrix(-0.8,0,0,-0.8,-10,0)"
         style="fill:#000000;fill-opacity:1;fill-rule:evenodd;stroke:#000000;stroke-width:1pt;stroke-opacity:1"
         d="M 0,0 5,-5 -12.5,0 5,5 0,0 Z"
         id="path4242" />
    </marker>
    <marker
       style="overflow:visible"
       id="marker4587"
       refX="0"
       refY="0"
       orient="auto">
      <path
         transform="matrix(-1.1,0,0,-1.1,-1.1,0)"
         d="M 8.7185878,4.0337352 -2.2072895,0.01601326 8.7185884,-4.0017078 c -1.7454984,2.3720609 -1.7354408,5.6174519 -6e-7,8.035443 z"
         style="fill:#0000f6;fill-opacity:1;fill-rule:evenodd;stroke:#0000f6;stroke-width:0.625;stroke-linejoin:round;stroke-opacity:1"
         id="path4589" />
    </marker>
    <marker
       style="overflow:visible"
       id="marker4541"
       refX="0"
       refY="0"
       orient="auto">
      <path
         transform="matrix(-1.1,0,0,-1.1,-1.1,0)"
         d="M 8.7185878,4.0337352 -2.2072895,0.01601326 8.7185884,-4.0017078 c -1.7454984,2.3720609 -1.7354408,5.6174519 -6e-7,8.035443 z"
         style="fill:#000000;fill-opacity:1;fill-rule:evenodd;stroke:#000000;stroke-width:0.625;stroke-linejoin:round;stroke-opacity:1"
         id="path4543" />
    </marker>
    <marker
       style="overflow:visible"
       id="Arrow2Lend"
       refX="0"
       refY="0"
       orient="auto">
      <path
         transform="matrix(-1.1,0,0,-1.1,-1.1,0)"
         d="M 8.7185878,4.0337352 -2.2072895,0.01601326 8.7185884,-4.0017078 c -1.7454984,2.3720609 -1.7354408,5.6174519 -6e-7,8.035443 z"
         style="fill:#0000d6;fill-opacity:1;fill-rule:evenodd;stroke:#0000d6;stroke-width:0.625;stroke-linejoin:round;stroke-opacity:1"
         id="path4260" />
    </marker>
    <marker
       style="overflow:visible"
       id="Arrow2Lstart"
       refX="0"
       refY="0"
       orient="auto">
      <path
         transform="matrix(1.1,0,0,1.1,1.1,0)"
         d="M 8.7185878,4.0337352 -2.2072895,0.01601326 8.7185884,-4.0017078 c -1.7454984,2.3720609 -1.7354408,5.6174519 -6e-7,8.035443 z"
         style="fill:#000000;fill-opacity:1;fill-rule:evenodd;stroke:#000000;stroke-width:0.625;stroke-linejoin:round;stroke-opacity:1"
         id="path4257" />
    </marker>
  </defs>
  <metadata
     id="metadata7">
    <rdf:RDF>
      <cc:Work
         rdf:about="">
        <dc:format>image/svg+xml</dc:format>
        <dc:type
           rdf:resource="http://purl.org/dc/dcmitype/StillImage" />
        <dc:title></dc:title>
      </cc:Work>
    </rdf:RDF>
  </metadata>
  <g
     transform="translate(-55.142857,-101.79078)"
     id="layer1">
    <rect
       y="103.79078"
       x="57.142857"
       height="100"
       width="237.14285"
       id="rect4136"
       style="opacity:0.5;fill:#f2f2f2;fill-opacity:1;stroke:#000000;stroke-width:4;stroke-miterlimit:4;stroke-dasharray:none;stroke-opacity:1" />
    <text
       id="text4138"
       y="170.56689"
       x="125.34196"
       style="font-style:normal;font-weight:normal;font-size:45px;line-height:125%;font-family:sans-serif;letter-spacing:0px;word-spacing:0px;fill:#000000;fill-opacity:1;stroke:none;stroke-width:1px;stroke-linecap:butt;stroke-linejoin:miter;stroke-opacity:1"
       xml:space="preserve"><tspan
         y="170.56689"
         x="125.34196"
         id="tspan4140">Utils</tspan></text>
    <rect
       y="231.56538"
       x="219.20319"
       height="98.736465"
       width="415.87933"
       id="rect4136-7"
       style="opacity:0.5;fill:#f2f2f2;fill-opacity:1;stroke:#000000;stroke-width:5.26353407;stroke-miterlimit:4;stroke-dasharray:none;stroke-opacity:1" />
    <text
       id="text4138-2"
       y="297.70975"
       x="271.92801"
       style="font-style:normal;font-weight:normal;font-size:45px;line-height:125%;font-family:sans-serif;letter-spacing:0px;word-spacing:0px;fill:#000000;fill-opacity:1;stroke:none;stroke-width:1px;stroke-linecap:butt;stroke-linejoin:miter;stroke-opacity:1"
       xml:space="preserve"><tspan
         y="297.70975"
         x="271.92801"
         id="tspan4140-6">DataHandlers</tspan></text>
    <rect
       y="365.48227"
       x="404.54861"
       height="99.474213"
       width="305.18851"
       id="rect4136-7-6"
       style="opacity:0.5;fill:#f2f2f2;fill-opacity:1;stroke:#000000;stroke-width:4.52578878;stroke-miterlimit:4;stroke-dasharray:none;stroke-opacity:1" />
    <text
       id="text4138-2-4"
       y="427.63391"
       x="465.35211"
       style="font-style:normal;font-weight:normal;font-size:45px;line-height:125%;font-family:sans-serif;letter-spacing:0px;word-spacing:0px;fill:#000000;fill-opacity:1;stroke:none;stroke-width:1px;stroke-linecap:butt;stroke-linejoin:miter;stroke-opacity:1"
       xml:space="preserve"><tspan
         y="427.63391"
         x="465.35211"
         id="tspan4140-6-2">Analysis</tspan></text>
    <rect
       y="486.17139"
       x="408.09488"
       height="98.09597"
       width="526.66742"
       id="rect4136-7-6-0"
       style="opacity:0.5;fill:#f2f2f2;fill-opacity:1;stroke:#000000;stroke-width:5.90403271;stroke-miterlimit:4;stroke-dasharray:none;stroke-opacity:1" />
    <text
       id="text4138-2-4-0"
       y="551.99548"
       x="466.00623"
       style="font-style:normal;font-weight:normal;font-size:45px;line-height:125%;font-family:sans-serif;letter-spacing:0px;word-spacing:0px;fill:#000000;fill-opacity:1;stroke:none;stroke-width:1px;stroke-linecap:butt;stroke-linejoin:miter;stroke-opacity:1"
       xml:space="preserve"><tspan
         y="551.99548"
         x="466.00623"
         id="tspan4140-6-2-8">InstrumentControl</tspan></text>
    <rect
       y="225.60223"
       x="821.8114"
       height="99.234207"
       width="339.23419"
       id="rect4136-7-6-0-5"
       style="opacity:0.5;fill:#f2f2f2;fill-opacity:1;stroke:#000000;stroke-width:4.76579618;stroke-miterlimit:4;stroke-dasharray:none;stroke-opacity:1" />
    <text
       id="text4138-2-4-0-2"
       y="291.99545"
       x="878.79663"
       style="font-style:normal;font-weight:normal;font-size:45px;line-height:125%;font-family:sans-serif;letter-spacing:0px;word-spacing:0px;fill:#000000;fill-opacity:1;stroke:none;stroke-width:1px;stroke-linecap:butt;stroke-linejoin:miter;stroke-opacity:1"
       xml:space="preserve"><tspan
         y="291.99545"
         x="878.79663"
         id="tspan4140-6-2-8-9">FrontEnds</tspan></text>
  </g>
  <g
     transform="translate(-5.9790039e-7,4.8862304e-6)"
     style="display:inline"
     id="layer2">
    <path
       id="path4891"
       d="M 234.28571,59.714303 C 485.71429,31.142875 762.85714,162.57145 762.85714,162.57145"
       style="fill:none;fill-rule:evenodd;stroke:#0000d6;stroke-width:3;stroke-linecap:butt;stroke-linejoin:miter;stroke-miterlimit:4;stroke-dasharray:none;stroke-opacity:1;marker-end:url(#Arrow2Lend)" />
    <path
       id="path4937"
       d="M 105.71429,105.42859 C 14.285714,354.00002 348.57143,439.7143 348.57143,439.7143"
       style="fill:none;fill-rule:evenodd;stroke:#0000f9;stroke-width:3;stroke-linecap:butt;stroke-linejoin:miter;stroke-miterlimit:4;stroke-dasharray:none;stroke-opacity:1;marker-end:url(#marker4945)" />
    <path
       id="path5295"
       d="m 580,188.28573 c 97.14286,40 182.85714,-8.57143 182.85714,-8.57143"
       style="fill:none;fill-rule:evenodd;stroke:#0000fb;stroke-width:3;stroke-linecap:butt;stroke-linejoin:miter;stroke-miterlimit:4;stroke-dasharray:none;stroke-opacity:1;marker-end:url(#marker5303)" />
    <path
       id="path5421"
       d="M 651.42857,314.00002 C 737.14286,299.7143 762.85714,205.42859 762.85714,205.42859"
       style="fill:none;fill-rule:evenodd;stroke:#0000f9;stroke-width:3;stroke-linecap:butt;stroke-linejoin:miter;stroke-miterlimit:4;stroke-dasharray:none;stroke-opacity:1;marker-end:url(#marker5429)" />
    <path
       id="path5517"
       d="M 877.14286,436.85716 C 1008.5714,351.14287 945.71429,225.42859 945.71429,225.42859"
       style="fill:none;fill-rule:evenodd;stroke:#0000ff;stroke-width:3;stroke-linecap:butt;stroke-linejoin:miter;stroke-miterlimit:4;stroke-dasharray:none;stroke-opacity:1;marker-end:url(#marker5525)" />
    <path
       id="path6283"
       d="M 108.57143,105.42859 C 54.285714,159.7143 160,174.00002 160,174.00002"
       style="fill:none;fill-rule:evenodd;stroke:#0000ff;stroke-width:3;stroke-linecap:butt;stroke-linejoin:miter;stroke-miterlimit:4;stroke-dasharray:none;stroke-opacity:1;marker-end:url(#marker5657)" />
    <path
       id="path6309"
       d="M 82.857143,99.714303 C -20,248.28573 345.71429,311.14287 345.71429,311.14287"
       style="fill:none;fill-rule:evenodd;stroke:#0000ff;stroke-width:3;stroke-linecap:butt;stroke-linejoin:miter;stroke-miterlimit:4;stroke-dasharray:none;stroke-opacity:1;marker-end:url(#marker6317)" />
    <path
       id="path6417"
       d="M 348.57143,228.28573 C 142.85714,311.14287 340,336.85716 340,336.85716"
       style="fill:none;fill-rule:evenodd;stroke:#0000ff;stroke-width:3;stroke-linecap:butt;stroke-linejoin:miter;stroke-miterlimit:4;stroke-dasharray:none;stroke-opacity:1;marker-end:url(#marker6425)" />
    <path
       id="path6537"
       d="M 385.71429,225.42859 C 82.857143,359.7143 351.42857,419.7143 351.42857,419.7143"
       style="fill:none;fill-rule:evenodd;stroke:#0000ff;stroke-width:3;stroke-linecap:butt;stroke-linejoin:miter;stroke-miterlimit:4;stroke-dasharray:none;stroke-opacity:1;marker-end:url(#marker6545)" />
  </g>
</svg>
